{"title":"Supergirl.S01.720p.BluRay.X264-REWARD [Season 1 One Complete]","uid":15580455,"size":47416294668,"categoryP":"video","categoryS":"hd___tv_shows","magnet":"?xt=urn:btih:9ddfdb60e822bb4e8fef05e6e4bbc2c4cdb26c9e&amp;dn=Supergirl.S01.720p.BluRay.X264-REWARD+%5BSeason+1+One+Complete%5D&amp;tr=udp%3A%2F%2Ftracker.leechers-paradise.org%3A6969&amp;tr=udp%3A%2F%2Fzer0day.ch%3A1337&amp;tr=udp%3A%2F%2Fopen.demonii.com%3A1337&amp;tr=udp%3A%2F%2Ftracker.coppersurfer.tk%3A6969&amp;tr=udp%3A%2F%2Fexodus.desync.com%3A6969","seeders":1,"leechers":6,"uploader":"GoodFilms","files":62,"time":1471398004,"description":"http://www.imdb.com/title/tt4016454/\r\n\r\nVideo\r\nID                                       : 1\r\nFormat                                   : AVC\r\nFormat/Info                              : Advanced Video Codec\r\nFormat profile                           :   \r\nFormat settings, CABAC                   : Yes\r\nFormat settings, ReFrames                : 5 frames\r\nCodec ID                                 : V_MPEG4/ISO/AVC\r\nDuration                                 : 43mn 53s\r\nBit rate                                 : 5 611 Kbps\r\nWidth                                    : 1 280 pixels\r\nHeight                                   : 720 pixels\r\nDisplay aspect ratio                     : 16:9\r\nFrame rate mode                          : Constant\r\nFrame rate                               : 23.976 (24000/1001) fps\r\nColor space                              : YUV\r\nChroma subsampling                       : 4:2:0\r\nBit depth                                : 8 bits\r\nScan type                                : Progressive\r\nBits/(Pixel*Frame)                       : 0.254\r\nStream size                              : 1.68 GiB (77%)\r\nWriting library                          : x264 core 148 r2705 3f5ed56\r\nDefault                                  : Yes\r\nForced                                   : No\r\nStatistics Tags Issue                    : no_variable_data 1970-01-01 00:00:00 / no_variable_data 2010-02-22 21:41:29\r\nFromStats_BitRate                        : 5610691\r\nFromStats_Duration                       : 00:43:53.464000000\r\nFromStats_FrameCount                     : 63140\r\nFromStats_StreamSize                     : 1846944099\r\n\r\nAudio\r\nID                                       : 2\r\nFormat                                   : DTS\r\nFormat/Info                              : Digital Theater Systems\r\nMode                                     : 16\r\nFormat settings, Endianness              : Big\r\nCodec ID                                 : A_DTS\r\nDuration                                 : 43mn 53s\r\nBit rate mode                            : Constant\r\nBit rate                                 : 1 509 Kbps\r\nChannel(s)                               : 6 channels\r\nChannel positions                        : Front: L C R, Side: L R, LFE\r\nSampling rate                            : 48.0 KHz\r\nFrame rate                               : 93.750 fps (512 spf)\r\nBit depth                                : 24 bits\r\nCompression mode                         : Lossy\r\nStream size                              : 474 MiB (21%)\r\nLanguage                                 : English\r\nDefault                                  : Yes\r\nForced                                   : No\r\nStatistics Tags Issue                    : no_variable_data 1970-01-01 00:00:00 / no_variable_data 2010-02-22 21:41:29\r\nFromStats_BitRate                        : 1509000\r\nFromStats_Duration                       : 00:43:53.472000000\r\nFromStats_FrameCount                     : 246888\r\nFromStats_StreamSize                     : 496738656\r\n\r\nText #1\r\nID                                       : 3\r\nFormat                                   : UTF-8\r\nCodec ID                                 : S_TEXT/UTF8\r\nCodec ID/Info                            : UTF-8 Plain Text\r\nLanguage                                 : English\r\nDefault                                  : No\r\nForced                                   : No\r\nStatistics Tags Issue                    : no_variable_data 1970-01-01 00:00:00 / no_variable_data 2010-02-22 21:41:29\r\nFromStats_BitRate                        : 79\r\nFromStats_Duration                       : 00:43:48.792000000\r\nFromStats_FrameCount                     : 711\r\nFromStats_StreamSize                     : 26245\r\n\r\nText #2\r\nID                                       : 4\r\nFormat                                   : UTF-8\r\nCodec ID                                 : S_TEXT/UTF8\r\nCodec ID/Info                            : UTF-8 Plain Text\r\nTitle                                    : SDH\r\nLanguage                                 : English\r\nDefault                                  : No\r\nForced                                   : No\r\nStatistics Tags Issue                    : no_variable_data 1970-01-01 00:00:00 / no_variable_data 2010-02-22 21:41:29\r\nFromStats_BitRate                        : 83\r\nFromStats_Duration                       : 00:43:48.792000000\r\nFromStats_FrameCount                     : 764\r\nFromStats_StreamSize                     : 27524\r\n\r\nMenu\r\n00:00:00.000                             : en:00:00:00.000\r\n00:01:03.272                             : en:00:01:03.272\r\n00:08:09.823                             : en:00:08:09.823\r\n00:18:27.148                             : en:00:18:27.148\r\n00:24:28.592                             : en:00:24:28.592\r\n00:32:19.146                             : en:00:32:19.146\r\n00:43:25.561                             : en:00:43:25.561","torrent":{"xt":"urn:btih:9ddfdb60e822bb4e8fef05e6e4bbc2c4cdb26c9e","amp;dn":"Supergirl.S01.720p.BluRay.X264-REWARD+%5BSeason+1+One+Complete%5D","amp;tr":["udp%3A%2F%2Ftracker.leechers-paradise.org%3A6969","udp%3A%2F%2Fzer0day.ch%3A1337","udp%3A%2F%2Fopen.demonii.com%3A1337","udp%3A%2F%2Ftracker.coppersurfer.tk%3A6969","udp%3A%2F%2Fexodus.desync.com%3A6969"],"infoHash":"9ddfdb60e822bb4e8fef05e6e4bbc2c4cdb26c9e","infoHashBuffer":{"type":"Buffer","data":[157,223,219,96,232,34,187,78,143,239,5,230,228,187,194,196,205,178,108,158]},"announce":[],"urlList":[]}}